<svg width="82" height="16" viewBox="0 0 82 16" fill="none" xmlns="http://www.w3.org/2000/svg">
<path d="M0.42 15V0.899999H3.52V12.38H10.04V15H0.42ZM16.6272 15.22C15.4672 15.22 14.4672 15.0133 13.6272 14.6C12.8005 14.1733 12.1605 13.58 11.7072 12.82C11.2672 12.0467 11.0472 11.14 11.0472 10.1C11.0472 9.08667 11.2605 8.2 11.6872 7.44C12.1139 6.66667 12.7072 6.06667 13.4672 5.64C14.2405 5.2 15.1139 4.98 16.0872 4.98C17.0472 4.98 17.8739 5.18667 18.5672 5.6C19.2605 6 19.7939 6.57333 20.1672 7.32C20.5539 8.06667 20.7472 8.95333 20.7472 9.98V10.74H13.5272V9.18H18.5672L18.2472 9.46C18.2472 8.64667 18.0672 8.03333 17.7072 7.62C17.3605 7.19333 16.8605 6.98 16.2072 6.98C15.7139 6.98 15.2939 7.09333 14.9472 7.32C14.6005 7.54667 14.3339 7.87333 14.1472 8.3C13.9605 8.72667 13.8672 9.24 13.8672 9.84V10C13.8672 10.68 13.9672 11.24 14.1672 11.68C14.3805 12.1067 14.6939 12.4267 15.1072 12.64C15.5339 12.8533 16.0605 12.96 16.6872 12.96C17.2205 12.96 17.7605 12.88 18.3072 12.72C18.8539 12.56 19.3472 12.3133 19.7872 11.98L20.5872 14C20.0939 14.3733 19.4872 14.6733 18.7672 14.9C18.0605 15.1133 17.3472 15.22 16.6272 15.22ZM23.2052 15V7.44H21.3452V5.18H24.0852L23.2052 5.98V5.36C23.2052 3.90667 23.5918 2.82 24.3652 2.1C25.1385 1.36667 26.3452 0.953333 27.9852 0.86L29.0852 0.779999L29.2652 2.98L28.3252 3.04C27.8052 3.06667 27.3918 3.15333 27.0852 3.3C26.7785 3.43333 26.5585 3.62667 26.4252 3.88C26.2918 4.12 26.2252 4.44 26.2252 4.84V5.52L25.8452 5.18H28.7852V7.44H26.2252V15H23.2052ZM34.3159 15.22C32.9159 15.22 31.8759 14.88 31.1959 14.2C30.5159 13.52 30.1759 12.52 30.1759 11.2V7.44H28.3159V5.18H30.1759V2.3H33.1959V5.18H36.0959V7.44H33.1959V11.08C33.1959 11.64 33.3226 12.06 33.5759 12.34C33.8426 12.62 34.2626 12.76 34.8359 12.76C35.0093 12.76 35.1893 12.74 35.3759 12.7C35.5759 12.66 35.7893 12.6067 36.0159 12.54L36.4559 14.74C36.1759 14.8867 35.8426 15 35.4559 15.08C35.0693 15.1733 34.6893 15.22 34.3159 15.22ZM42.2042 15.22C41.1509 15.22 40.2309 15.0133 39.4442 14.6C38.6709 14.1867 38.0709 13.5933 37.6442 12.82C37.2176 12.0467 37.0042 11.1333 37.0042 10.08C37.0042 9.02667 37.2176 8.12 37.6442 7.36C38.0709 6.6 38.6709 6.01333 39.4442 5.6C40.2309 5.18667 41.1509 4.98 42.2042 4.98C43.2576 4.98 44.1709 5.18667 44.9442 5.6C45.7309 6.01333 46.3376 6.60667 46.7642 7.38C47.2042 8.14 47.4242 9.04 47.4242 10.08C47.4242 11.1333 47.2042 12.0467 46.7642 12.82C46.3376 13.5933 45.7309 14.1867 44.9442 14.6C44.1709 15.0133 43.2576 15.22 42.2042 15.22ZM42.2042 12.96C42.8576 12.96 43.3842 12.7267 43.7842 12.26C44.1842 11.78 44.3842 11.0533 44.3842 10.08C44.3842 9.10667 44.1842 8.39333 43.7842 7.94C43.3842 7.47333 42.8576 7.24 42.2042 7.24C41.5642 7.24 41.0442 7.47333 40.6442 7.94C40.2442 8.39333 40.0442 9.10667 40.0442 10.08C40.0442 11.0533 40.2442 11.78 40.6442 12.26C41.0442 12.7267 41.5642 12.96 42.2042 12.96ZM51.9272 15L47.6472 5.18H50.8272L53.5872 12.22H52.9472L55.8272 5.18H58.8072L54.4672 15H51.9272ZM64.5764 15.22C63.4164 15.22 62.4164 15.0133 61.5764 14.6C60.7497 14.1733 60.1097 13.58 59.6564 12.82C59.2164 12.0467 58.9964 11.14 58.9964 10.1C58.9964 9.08667 59.2097 8.2 59.6364 7.44C60.0631 6.66667 60.6564 6.06667 61.4164 5.64C62.1897 5.2 63.0631 4.98 64.0364 4.98C64.9964 4.98 65.8231 5.18667 66.5164 5.6C67.2097 6 67.7431 6.57333 68.1164 7.32C68.5031 8.06667 68.6964 8.95333 68.6964 9.98V10.74H61.4764V9.18H66.5164L66.1964 9.46C66.1964 8.64667 66.0164 8.03333 65.6564 7.62C65.3097 7.19333 64.8097 6.98 64.1564 6.98C63.6631 6.98 63.2431 7.09333 62.8964 7.32C62.5497 7.54667 62.2831 7.87333 62.0964 8.3C61.9097 8.72667 61.8164 9.24 61.8164 9.84V10C61.8164 10.68 61.9164 11.24 62.1164 11.68C62.3297 12.1067 62.6431 12.4267 63.0564 12.64C63.4831 12.8533 64.0097 12.96 64.6364 12.96C65.1697 12.96 65.7097 12.88 66.2564 12.72C66.8031 12.56 67.2964 12.3133 67.7364 11.98L68.5364 14C68.0431 14.3733 67.4364 14.6733 66.7164 14.9C66.0097 15.1133 65.2964 15.22 64.5764 15.22ZM70.453 15V5.18H73.413V7.58H73.213C73.373 6.78 73.7196 6.16667 74.253 5.74C74.7996 5.3 75.5196 5.04667 76.413 4.98L77.293 4.92L77.473 7.46L75.773 7.64C75.013 7.70667 74.4463 7.92667 74.073 8.3C73.713 8.67333 73.533 9.21333 73.533 9.92V15H70.453Z" fill="black"/>
<path d="M78.0464 15V11.8H81.2864V15H78.0464Z" fill="#FF8527"/>
</svg>
