<svg width="76" height="76" viewBox="0 0 76 76" fill="none" xmlns="http://www.w3.org/2000/svg">
<path opacity="0.21" d="M52.833 0C65.5356 0 75.833 10.2975 75.833 23V53C75.833 65.7025 65.5356 76 52.833 76H23C10.2975 76 3.2215e-07 65.7025 0 53V23C0 10.2975 10.2975 8.97365e-07 23 0H52.833Z" fill="#8280FF"/>
<path opacity="0.587821" d="M48.0276 28.2443C50.8196 28.2443 53.0831 30.5127 53.0833 33.3107C53.0833 36.109 50.8197 38.3781 48.0276 38.3781C45.2356 38.378 42.9719 36.1089 42.9719 33.3107C42.9721 30.5127 45.2357 28.2444 48.0276 28.2443ZM32.8616 19.8C36.5842 19.8002 39.6018 22.825 39.6018 26.5558C39.6016 30.2865 36.5841 33.3105 32.8616 33.3107C29.1389 33.3107 26.1205 30.2867 26.1204 26.5558C26.1204 22.8249 29.1388 19.8 32.8616 19.8Z" fill="#8280FF"/>
<path d="M47.3567 40.0698C53.0968 40.1329 57.7841 43.04 58.1369 49.187C58.1511 49.4347 58.1358 50.2005 57.2219 50.2006H50.7248C50.7248 46.3998 49.471 42.892 47.3567 40.0698ZM32.8332 36.6889C40.9016 36.6889 47.5308 40.562 48.0246 48.8491C48.0443 49.1794 48.0237 50.1996 46.758 50.1996H18.9201C18.4974 50.1991 17.66 49.286 17.6955 48.8471C18.3489 40.7869 24.8769 36.6889 32.8332 36.6889Z" fill="#8280FF"/>
</svg>
