<svg width="76" height="76" viewBox="0 0 76 76" fill="none" xmlns="http://www.w3.org/2000/svg">
<path opacity="0.3" d="M52.8301 0C65.5326 4.15757e-05 75.8301 10.2975 75.8301 23V53C75.8301 65.7025 65.5326 76 52.8301 76H23C10.2975 76 3.2215e-07 65.7025 0 53V23C0 10.2975 10.2975 0 23 0H52.8301Z" fill="#FF9066"/>
<path opacity="0.78" fill-rule="evenodd" clip-rule="evenodd" d="M36.1944 30.0349C36.2144 29.7743 36.4317 29.5731 36.693 29.5731H37.4624C37.7193 29.5731 37.9344 29.7678 37.9599 30.0235L38.7576 38.0176L44.4039 41.2513C44.5595 41.3404 44.6554 41.5059 44.6554 41.6852V42.4292C44.6554 42.759 44.3417 42.9985 44.0236 42.9115L35.7856 40.6598C35.5544 40.5966 35.4006 40.3782 35.4189 40.1392L36.1944 30.0349Z" fill="#FF9066"/>
<path opacity="0.901274" d="M27.6783 18.9838C27.7736 18.5837 28.2837 18.4629 28.5475 18.7777L30.9899 21.6957C33.1169 20.788 35.457 20.2846 37.9147 20.2846L38.3717 20.2904C47.9326 20.5332 55.609 28.3772 55.609 38.018C55.6088 47.8116 47.6865 55.7514 37.9147 55.7514C28.143 55.7512 20.2215 47.8115 20.2213 38.018C20.2213 36.3548 20.4494 34.7446 20.8766 33.2182L24.1217 34.1303C23.7711 35.3831 23.5914 36.6871 23.5914 38.018C23.5916 45.9461 30.0043 52.3733 37.9147 52.3734C45.8252 52.3734 52.2387 45.9462 52.2389 38.018C52.2389 30.2135 46.0245 23.863 38.2848 23.6664L37.9147 23.6625C36.3118 23.6625 34.751 23.9259 33.2789 24.4301L35.7252 27.352C35.9894 27.6676 35.7812 28.1499 35.3707 28.1732L26.026 28.7045C25.6922 28.7235 25.4348 28.4142 25.5123 28.0883L27.6783 18.9838Z" fill="#FF9066"/>
</svg>
