<svg width="76" height="76" viewBox="0 0 76 76" fill="none" xmlns="http://www.w3.org/2000/svg">
<path opacity="0.21" d="M52.8301 0C65.5326 4.15757e-05 75.8301 10.2975 75.8301 23V53C75.8301 65.7025 65.5326 76 52.8301 76H23C10.2975 76 3.2215e-07 65.7025 0 53V23C0 10.2975 10.2975 0 23 0H52.8301Z" fill="#4AD991"/>
<path d="M24.1533 51.7926H53.6427C54.7285 51.7926 55.6087 52.6748 55.6087 53.763C55.6087 54.8512 54.7285 55.7333 53.6427 55.7333H22.1873C21.1015 55.7333 20.2213 54.8512 20.2213 53.763V22.237C20.2213 21.1488 21.1015 20.2667 22.1873 20.2667C23.2731 20.2667 24.1533 21.1488 24.1533 22.237V51.7926Z" fill="#4AD991"/>
<path opacity="0.5" d="M31.4854 43.2883C30.7428 44.0822 29.4987 44.1225 28.7065 43.3782C27.9144 42.6339 27.8743 41.387 28.6169 40.5931L35.9893 32.7116C36.7074 31.9439 37.9009 31.8773 38.6996 32.5604L44.5184 37.5369L52.0996 27.9124C52.7724 27.0583 54.0087 26.9125 54.8609 27.5868C55.7131 28.2611 55.8585 29.5001 55.1857 30.3543L46.3389 41.5854C45.6479 42.4626 44.368 42.5888 43.5197 41.8633L37.5745 36.7787L31.4854 43.2883Z" fill="#4AD991"/>
</svg>
