<svg width="76" height="76" viewBox="0 0 76 76" fill="none" xmlns="http://www.w3.org/2000/svg">
<path opacity="0.21" d="M52.8301 0C65.5326 4.15757e-05 75.8301 10.2975 75.8301 23V53C75.8301 65.7025 65.5326 76 52.8301 76H23C10.2975 76 3.2215e-07 65.7025 0 53V23C0 10.2975 10.2975 0 23 0H52.8301Z" fill="#FEC53D"/>
<path fill-rule="evenodd" clip-rule="evenodd" d="M18.9575 30.8009L35.2616 40.2351C35.4371 40.3367 35.6212 40.4101 35.8086 40.4567V58.754L20.1203 49.4488C19.3996 49.0213 18.9575 48.2442 18.9575 47.4049L18.9575 30.8009ZM56.8725 30.55V47.4049C56.8725 48.2442 56.4304 49.0213 55.7097 49.4488L40.0214 58.754V40.2964C40.0596 40.2772 40.0975 40.2568 40.135 40.2351L56.8725 30.55V30.55Z" fill="#FEC53D"/>
<path opacity="0.499209" fill-rule="evenodd" clip-rule="evenodd" d="M19.4696 26.2218C19.6688 25.9698 19.9201 25.7567 20.2132 25.6003L36.801 16.7455C37.4974 16.3737 38.3326 16.3737 39.029 16.7455L55.6168 25.6003C55.8427 25.7209 56.0438 25.8751 56.2154 26.0549L38.0286 36.5786C37.909 36.6478 37.7988 36.727 37.6983 36.8145C37.5978 36.727 37.4875 36.6478 37.368 36.5786L19.4696 26.2218Z" fill="#FEC53D"/>
</svg>
